<?xml version="1.0" encoding="utf-8" ?>
<svg baseProfile="full" height="300" version="1.1" width="300" xmlns="http://www.w3.org/2000/svg" xmlns:ev="http://www.w3.org/2001/xml-events" xmlns:xlink="http://www.w3.org/1999/xlink"><defs /><rect fill="none" height="90.0" stroke="black" stroke-width="1" width="300" x="0" y="0" /><polygon fill="red" points="45.0,90.0 75.0,100.0 105.0,85.0 135.0,105.0 165.0,90.0 195.0,100.0 225.0,85.0 255.0,105.0 300,90.0" stroke="black" stroke-width="1" /><polygon fill="orange" points="15.0,100.0 30.0,120.0 45.0,100.0 30.0,90.0" stroke="black" stroke-width="1" /><polygon fill="orange" points="75.0,100.0 90.0,120.0 105.0,100.0 90.0,90.0" stroke="black" stroke-width="1" /><polygon fill="orange" points="135.0,100.0 150.0,120.0 165.0,100.0 150.0,90.0" stroke="black" stroke-width="1" /><polygon fill="orange" points="195.0,100.0 210.0,120.0 225.0,100.0 210.0,90.0" stroke="black" stroke-width="1" /><polygon fill="orange" points="255.0,100.0 270.0,120.0 285.0,100.0 270.0,90.0" stroke="black" stroke-width="1" /></svg>