<?xml version="1.0" standalone="no"?>
<!DOCTYPE svg PUBLIC "-//W3C//DTD SVG 20010904//EN"
 "http://www.w3.org/TR/2001/REC-SVG-20010904/DTD/svg10.dtd">
<svg version="1.0" xmlns="http://www.w3.org/2000/svg"
 width="2400.000000pt" height="2400.000000pt" viewBox="0 0 2400.000000 2400.000000"
 preserveAspectRatio="xMidYMid meet">

<g transform="translate(0.000000,2400.000000) scale(0.100000,-0.100000)"
fill="#000000" stroke="none">
<path d="M13241 22863 c-28 -29 -61 -144 -91 -318 -6 -38 -16 -83 -21 -100 -4
-16 -20 -77 -34 -135 -64 -264 -81 -303 -267 -630 -136 -237 -143 -247 -334
-470 -293 -341 -234 -285 -869 -825 -360 -306 -544 -460 -695 -580 -132 -104
-927 -756 -1140 -935 -297 -249 -387 -325 -459 -390 -127 -114 -753 -762 -845
-875 -66 -80 -420 -574 -563 -785 -36 -53 -256 -494 -361 -724 -66 -143 -96
-223 -131 -341 -19 -66 -72 -255 -91 -325 -10 -36 -27 -99 -39 -140 -36 -129
-49 -208 -75 -460 -14 -135 -31 -283 -38 -330 -16 -106 -16 -571 0 -800 7 -91
17 -233 22 -317 12 -177 22 -234 85 -518 26 -115 51 -228 55 -250 39 -187 105
-423 153 -550 9 -22 41 -112 72 -200 61 -173 70 -198 141 -385 26 -69 50 -129
54 -135 17 -26 82 -196 77 -202 -13 -12 -253 50 -317 82 -91 46 -367 230 -426
284 -34 31 -115 119 -181 196 -290 342 -291 344 -393 585 -33 80 -67 159 -74
175 -26 56 -129 310 -138 340 -26 83 -49 183 -73 310 -15 77 -31 158 -35 180
-58 290 -66 341 -80 495 -13 145 -48 439 -61 507 -13 68 -52 103 -113 103 -51
0 -65 -14 -218 -210 -181 -233 -177 -226 -437 -650 -227 -371 -325 -537 -386
-659 -36 -71 -65 -132 -65 -134 0 -3 -13 -34 -29 -69 -16 -35 -39 -85 -51
-113 -12 -27 -34 -75 -47 -105 -30 -65 -78 -174 -162 -365 -34 -77 -68 -153
-76 -170 -37 -82 -172 -487 -287 -865 -11 -36 -22 -72 -25 -80 -4 -8 -14 -42
-24 -75 -9 -33 -28 -98 -42 -145 -22 -76 -35 -124 -67 -265 -5 -22 -14 -67
-20 -100 -7 -33 -15 -78 -20 -100 -34 -160 -128 -706 -149 -860 -16 -123 -45
-554 -62 -925 -10 -234 -3 -496 21 -825 6 -71 15 -197 20 -280 16 -232 31
-386 41 -430 5 -22 30 -134 55 -250 25 -115 50 -223 55 -240 11 -37 38 -146
49 -200 20 -93 91 -355 113 -420 63 -180 346 -874 408 -998 61 -121 126 -241
252 -467 17 -30 81 -145 142 -255 61 -110 122 -218 134 -240 56 -100 184 -277
338 -470 92 -116 227 -285 298 -375 140 -178 306 -350 614 -635 395 -367 402
-372 776 -615 387 -252 413 -266 657 -371 79 -34 162 -70 186 -80 23 -10 61
-28 85 -38 150 -67 303 -122 387 -140 25 -6 86 -20 135 -31 50 -12 108 -25
130 -30 22 -5 81 -18 130 -29 103 -22 249 -37 452 -47 l142 -6 31 30 c24 24
30 39 30 71 0 46 -9 57 -311 366 -226 232 -285 296 -687 748 -200 225 -393
450 -430 500 -79 107 -452 668 -549 824 -71 116 -196 369 -360 728 -68 150
-84 195 -148 440 -15 55 -33 125 -42 155 -50 182 -63 265 -79 500 -20 292 -15
528 15 700 78 458 80 466 154 645 142 345 156 371 363 652 142 193 150 203
161 203 10 0 24 -51 43 -155 6 -33 16 -76 21 -95 5 -19 22 -98 39 -175 16 -77
38 -169 49 -205 28 -98 249 -580 318 -693 59 -99 390 -524 477 -615 74 -77
450 -386 556 -459 44 -30 232 -123 248 -123 5 0 33 -12 63 -26 81 -40 226 -93
267 -100 21 -3 77 -1 127 4 82 9 92 13 117 41 38 43 36 68 -18 224 -81 238
-132 399 -178 567 -25 91 -50 179 -55 195 -51 159 -90 319 -111 450 -6 39 -13
84 -16 100 -3 17 -10 62 -15 100 -5 39 -13 97 -19 130 -5 33 -14 89 -19 125
-5 36 -15 101 -21 145 -16 106 -5 586 15 665 28 111 94 313 141 430 22 55 106
197 232 390 92 140 105 156 431 484 185 186 424 418 531 515 215 196 726 677
860 811 47 47 136 153 198 237 62 83 137 184 168 225 80 107 240 438 279 578
11 42 18 81 46 290 5 41 15 104 20 140 11 61 7 436 -6 665 -25 452 -29 478
-110 780 -9 33 -25 92 -35 130 -52 196 -70 250 -127 373 -9 18 -13 35 -10 39
7 7 330 -202 448 -289 80 -60 277 -240 508 -463 62 -60 144 -150 181 -200 126
-169 390 -573 426 -652 42 -91 219 -571 240 -652 14 -54 26 -125 45 -264 5
-37 13 -97 18 -135 5 -37 17 -119 26 -182 18 -123 17 -333 -5 -680 -18 -301
-23 -332 -95 -575 -109 -372 -122 -406 -277 -690 -72 -132 -147 -269 -166
-305 -63 -118 -112 -199 -191 -318 -82 -124 -222 -346 -379 -602 -247 -403
-259 -427 -284 -545 -5 -27 -14 -68 -19 -90 -40 -168 -47 -268 -30 -393 5 -37
15 -107 21 -157 20 -161 42 -249 84 -350 7 -16 37 -91 66 -165 82 -207 123
-278 296 -510 170 -227 235 -296 449 -476 228 -191 267 -216 490 -312 211 -91
219 -93 390 -104 88 -5 196 -7 240 -4 104 7 456 105 549 153 87 44 329 225
406 302 86 87 314 390 360 478 35 67 136 322 192 483 11 30 23 64 28 75 30 74
53 167 85 361 25 142 31 180 56 312 26 142 41 270 54 452 8 113 14 150 25 150
7 0 133 -143 216 -247 236 -293 301 -394 361 -553 14 -36 31 -78 38 -95 76
-169 130 -341 154 -490 6 -38 20 -124 30 -190 51 -307 54 -353 48 -680 -7
-342 -15 -436 -51 -576 -14 -52 -36 -137 -50 -190 -80 -308 -100 -364 -242
-649 -170 -344 -185 -369 -383 -640 -312 -425 -320 -434 -615 -719 -352 -340
-425 -404 -742 -642 -359 -270 -382 -286 -599 -423 -214 -136 -215 -137 -215
-196 0 -38 5 -51 30 -75 l29 -28 203 6 c112 4 241 11 288 16 606 66 619 69
850 137 63 19 140 42 170 51 294 86 468 151 625 233 61 32 205 106 320 165
282 145 321 171 664 435 311 239 466 372 566 487 33 37 112 124 175 193 368
400 416 458 585 717 325 498 398 619 510 848 125 256 201 414 230 480 13 28
36 79 52 115 17 36 47 110 67 165 21 55 41 109 46 120 10 25 192 583 225 690
39 126 68 236 85 325 12 58 28 135 39 185 10 48 80 383 91 440 38 193 47 252
61 395 5 58 14 168 19 245 6 77 15 190 20 250 39 441 10 1596 -50 1980 -5 33
-14 98 -20 145 -6 47 -15 112 -20 145 -5 33 -26 175 -45 315 -20 140 -41 273
-46 295 -6 22 -14 56 -19 75 -5 19 -13 53 -19 75 -12 43 -88 330 -122 460 -48
180 -63 222 -206 580 -125 315 -203 482 -335 725 -40 75 -80 149 -88 165 -30
57 -68 85 -115 85 -37 0 -47 -5 -74 -35 -17 -20 -31 -46 -31 -59 0 -13 -4 -36
-9 -52 -14 -47 -29 -124 -41 -214 -11 -76 -82 -454 -110 -585 -52 -239 -59
-263 -206 -680 -20 -55 -44 -125 -54 -155 -33 -99 -57 -160 -63 -167 -4 -3 -7
-12 -7 -20 0 -18 -70 -168 -118 -250 -21 -38 -56 -99 -77 -138 -83 -152 -139
-251 -175 -310 -48 -74 -358 -416 -422 -465 -98 -73 -325 -207 -381 -224 -64
-20 -78 -16 -57 17 36 59 281 552 308 622 17 44 52 145 78 225 26 80 62 190
80 245 112 342 131 415 183 710 6 33 20 112 32 175 19 108 27 156 50 305 17
106 23 657 9 728 -36 178 -138 503 -191 608 -36 72 -272 447 -352 559 -88 123
-727 773 -1062 1080 -99 90 -211 194 -250 230 -38 37 -223 211 -410 387 -402
380 -435 413 -552 563 -204 263 -245 324 -315 470 -100 208 -108 233 -124 355
-7 61 -18 153 -25 205 -15 126 -7 455 22 840 13 186 39 336 89 530 5 19 13 55
19 80 33 150 56 234 83 304 16 44 48 134 70 200 109 332 129 403 139 490 5 50
15 143 21 206 28 260 8 850 -35 1020 -10 42 -61 176 -92 245 -7 17 -27 65 -44
107 -17 43 -50 119 -74 170 -52 112 -380 605 -483 727 -92 110 -493 525 -603
626 -124 113 -461 389 -498 408 -48 25 -90 22 -122 -10z m111 -111 c18 -16 62
-50 98 -77 228 -172 721 -644 912 -875 343 -415 563 -803 677 -1196 80 -272
94 -672 40 -1124 -29 -246 -66 -375 -204 -705 -120 -288 -176 -514 -216 -870
-39 -356 -53 -993 -24 -1155 55 -314 211 -612 501 -960 103 -124 409 -437 540
-554 44 -39 150 -134 236 -211 85 -77 240 -214 343 -305 470 -411 887 -823
1089 -1075 342 -427 525 -808 581 -1209 49 -357 -16 -943 -175 -1561 -56 -219
-185 -614 -235 -722 -8 -17 -15 -34 -15 -38 0 -4 -6 -21 -14 -38 -8 -18 -42
-93 -75 -167 -103 -227 -236 -453 -339 -577 -29 -34 -52 -65 -52 -68 0 -11
149 -4 220 11 263 54 489 185 720 415 285 285 539 710 757 1269 45 116 132
372 158 465 8 28 24 84 35 125 89 317 153 642 181 915 5 55 13 129 17 165 l7
65 82 -150 c298 -550 495 -1045 637 -1605 198 -782 296 -1736 283 -2775 -5
-407 -24 -689 -67 -980 -5 -33 -14 -94 -20 -135 -45 -310 -177 -919 -248
-1145 -11 -33 -38 -121 -62 -195 -62 -198 -195 -572 -240 -675 -10 -22 -50
-114 -90 -205 -356 -815 -839 -1548 -1395 -2119 -178 -183 -436 -412 -615
-546 -36 -27 -81 -61 -100 -75 -75 -56 -230 -160 -340 -227 -564 -346 -1189
-572 -1845 -668 -222 -32 -725 -63 -725 -44 0 3 24 18 53 34 221 118 682 436
962 664 174 141 397 342 544 490 716 722 1157 1497 1295 2276 43 248 51 344
50 640 -3 833 -188 1440 -591 1945 -77 96 -462 490 -479 490 -14 0 -24 -79
-24 -205 0 -87 -7 -174 -35 -445 -3 -30 -10 -84 -15 -120 -5 -36 -15 -99 -21
-140 -20 -140 -65 -352 -108 -510 -264 -968 -828 -1489 -1613 -1491 -173 0
-309 33 -498 123 -571 273 -1080 922 -1228 1568 -40 173 -46 226 -46 400 0
149 4 188 23 262 60 232 177 453 440 828 177 253 213 305 316 460 190 288 340
563 430 790 20 52 41 104 46 115 11 25 93 277 107 330 140 514 157 1160 48
1715 -98 493 -294 942 -601 1379 -335 477 -907 963 -1449 1232 -124 62 -166
78 -166 65 0 -3 16 -32 35 -65 31 -52 58 -107 131 -268 51 -111 133 -364 168
-513 85 -364 143 -1142 106 -1425 -39 -299 -78 -431 -200 -680 -206 -420 -495
-745 -1255 -1410 -562 -492 -810 -737 -1017 -1005 -223 -288 -375 -602 -442
-910 -68 -311 -45 -837 60 -1350 14 -69 30 -144 35 -167 56 -272 199 -753 320
-1075 22 -59 38 -112 34 -118 -7 -11 -45 -7 -161 15 -355 69 -815 378 -1160
780 -394 458 -644 972 -750 1540 -17 93 -43 353 -44 438 0 31 -4 57 -9 57 -5
0 -30 -26 -57 -57 -27 -32 -85 -98 -129 -148 -450 -503 -639 -918 -726 -1589
-25 -193 -31 -684 -10 -821 36 -229 45 -281 76 -410 113 -470 362 -1035 678
-1535 149 -235 358 -536 481 -690 29 -36 95 -119 147 -185 281 -356 679 -785
1052 -1132 97 -91 177 -170 177 -174 0 -11 -178 -2 -350 18 -694 80 -1430 398
-2116 914 -1035 781 -1919 1964 -2437 3264 -119 301 -146 376 -257 730 -21 66
-99 366 -119 460 -12 55 -29 127 -36 160 -25 111 -76 405 -96 555 -75 571 -78
1301 -8 1965 33 313 103 765 150 975 6 25 14 63 19 85 5 22 23 103 40 180 16
77 39 176 51 220 11 44 24 96 29 115 42 173 198 665 298 935 58 158 212 529
287 690 155 335 396 790 531 1000 17 28 66 105 108 172 110 176 214 327 345
502 64 85 126 168 139 185 38 52 47 41 49 -64 9 -397 74 -899 154 -1197 49
-186 60 -224 88 -308 159 -484 362 -853 629 -1140 277 -299 571 -475 908 -544
114 -23 294 -37 294 -23 0 5 -27 68 -61 138 -34 71 -84 183 -111 249 -28 66
-59 140 -71 165 -24 55 -83 211 -147 390 -144 407 -232 746 -319 1240 -12 66
-35 249 -53 415 -19 179 -16 817 5 1015 23 213 35 308 46 355 5 22 15 69 21
105 20 115 70 324 111 465 56 196 126 395 173 499 14 31 26 59 26 63 0 18 164
355 238 488 401 725 994 1402 1912 2184 146 124 582 475 890 716 91 71 210
164 265 207 55 43 138 109 185 145 47 37 105 83 130 103 25 20 117 94 205 165
273 221 515 432 763 670 92 88 308 322 399 435 277 340 468 695 557 1033 31
119 63 316 71 440 8 109 13 115 67 69z"/>
</g>
</svg>
